<svg width="192" height="175" viewBox="0 0 192 175" fill="none" xmlns="http://www.w3.org/2000/svg">
<path d="M3.32 145V117.08H21.56V121.4H8.56V128.68H20.28V133H8.56V145H3.32ZM35.9844 145.48C34.411 145.48 32.9977 145.226 31.7444 144.72C30.5177 144.213 29.4644 143.493 28.5844 142.56C27.731 141.626 27.0644 140.493 26.5844 139.16C26.131 137.826 25.9044 136.333 25.9044 134.68C25.9044 133.026 26.131 131.533 26.5844 130.2C27.0644 128.866 27.731 127.733 28.5844 126.8C29.4644 125.866 30.5177 125.146 31.7444 124.64C32.9977 124.133 34.411 123.88 35.9844 123.88C37.531 123.88 38.931 124.133 40.1844 124.64C41.4377 125.146 42.491 125.866 43.3444 126.8C44.2244 127.733 44.891 128.866 45.3444 130.2C45.8244 131.533 46.0644 133.026 46.0644 134.68C46.0644 136.333 45.8244 137.826 45.3444 139.16C44.891 140.493 44.2244 141.626 43.3444 142.56C42.491 143.493 41.4377 144.213 40.1844 144.72C38.931 145.226 37.531 145.48 35.9844 145.48ZM35.9844 141.56C37.451 141.56 38.611 141.12 39.4644 140.24C40.3177 139.333 40.7444 138.013 40.7444 136.28V133.08C40.7444 131.346 40.3177 130.04 39.4644 129.16C38.611 128.253 37.451 127.8 35.9844 127.8C34.5177 127.8 33.3577 128.253 32.5044 129.16C31.651 130.04 31.2244 131.346 31.2244 133.08V136.28C31.2244 138.013 31.651 139.333 32.5044 140.24C33.3577 141.12 34.5177 141.56 35.9844 141.56ZM59.9688 145.48C58.3954 145.48 56.9821 145.226 55.7288 144.72C54.5021 144.213 53.4488 143.493 52.5688 142.56C51.7154 141.626 51.0488 140.493 50.5688 139.16C50.1154 137.826 49.8888 136.333 49.8888 134.68C49.8888 133.026 50.1154 131.533 50.5688 130.2C51.0488 128.866 51.7154 127.733 52.5688 126.8C53.4488 125.866 54.5021 125.146 55.7288 124.64C56.9821 124.133 58.3954 123.88 59.9688 123.88C61.5154 123.88 62.9154 124.133 64.1688 124.64C65.4221 125.146 66.4754 125.866 67.3288 126.8C68.2088 127.733 68.8754 128.866 69.3288 130.2C69.8088 131.533 70.0488 133.026 70.0488 134.68C70.0488 136.333 69.8088 137.826 69.3288 139.16C68.8754 140.493 68.2088 141.626 67.3288 142.56C66.4754 143.493 65.4221 144.213 64.1688 144.72C62.9154 145.226 61.5154 145.48 59.9688 145.48ZM59.9688 141.56C61.4354 141.56 62.5954 141.12 63.4488 140.24C64.3021 139.333 64.7288 138.013 64.7288 136.28V133.08C64.7288 131.346 64.3021 130.04 63.4488 129.16C62.5954 128.253 61.4354 127.8 59.9688 127.8C58.5021 127.8 57.3421 128.253 56.4888 129.16C55.6354 130.04 55.2088 131.346 55.2088 133.08V136.28C55.2088 138.013 55.6354 139.333 56.4888 140.24C57.3421 141.12 58.5021 141.56 59.9688 141.56ZM88.0731 141.36H87.7931C87.2331 142.613 86.4598 143.613 85.4731 144.36C84.5131 145.106 83.2331 145.48 81.6331 145.48C80.4598 145.48 79.3798 145.266 78.3931 144.84C77.4331 144.386 76.6065 143.72 75.9131 142.84C75.2198 141.933 74.6865 140.8 74.3131 139.44C73.9398 138.08 73.7531 136.493 73.7531 134.68C73.7531 131.053 74.4731 128.346 75.9131 126.56C77.3531 124.773 79.2598 123.88 81.6331 123.88C83.2331 123.88 84.5131 124.253 85.4731 125C86.4598 125.746 87.2331 126.746 87.7931 128H88.0731V115.4H93.1931V145H88.0731V141.36ZM83.7931 141.4C84.3798 141.4 84.9265 141.333 85.4331 141.2C85.9665 141.04 86.4198 140.826 86.7931 140.56C87.1931 140.266 87.4998 139.906 87.7131 139.48C87.9531 139.026 88.0731 138.506 88.0731 137.92V131.44C88.0731 130.853 87.9531 130.346 87.7131 129.92C87.4998 129.466 87.1931 129.106 86.7931 128.84C86.4198 128.546 85.9665 128.333 85.4331 128.2C84.9265 128.04 84.3798 127.96 83.7931 127.96C82.2998 127.96 81.1398 128.413 80.3131 129.32C79.5131 130.226 79.1131 131.466 79.1131 133.04V136.32C79.1131 137.893 79.5131 139.133 80.3131 140.04C81.1398 140.946 82.2998 141.4 83.7931 141.4ZM112.778 141.12H112.458C112.218 141.68 111.924 142.226 111.578 142.76C111.231 143.293 110.804 143.76 110.298 144.16C109.791 144.56 109.191 144.88 108.498 145.12C107.831 145.36 107.058 145.48 106.178 145.48C103.351 145.48 101.204 144.24 99.7375 141.76C98.2975 139.253 97.5775 135.746 97.5775 131.24C97.5775 126.493 98.4308 122.866 100.138 120.36C101.844 117.853 104.471 116.6 108.018 116.6C109.404 116.6 110.618 116.786 111.658 117.16C112.724 117.533 113.631 118.053 114.378 118.72C115.151 119.386 115.778 120.186 116.258 121.12C116.764 122.026 117.164 123.013 117.458 124.08L112.658 125.44C112.471 124.853 112.258 124.28 112.018 123.72C111.804 123.16 111.511 122.68 111.138 122.28C110.791 121.853 110.364 121.52 109.858 121.28C109.351 121.013 108.724 120.88 107.978 120.88C106.244 120.88 105.004 121.573 104.258 122.96C103.511 124.346 103.138 126.24 103.138 128.64V133.12C103.138 134.32 103.218 135.426 103.378 136.44C103.564 137.426 103.858 138.28 104.258 139C104.658 139.72 105.178 140.28 105.818 140.68C106.458 141.053 107.258 141.24 108.218 141.24C109.711 141.24 110.844 140.8 111.618 139.92C112.391 139.013 112.778 137.866 112.778 136.48V134.2H107.697V130.4H117.458V145H112.778V141.12ZM122.922 140.96H128.042V128.4H122.922V124.36H133.162V130H133.482C133.669 129.28 133.922 128.586 134.242 127.92C134.589 127.226 135.015 126.626 135.522 126.12C136.055 125.586 136.695 125.16 137.442 124.84C138.189 124.52 139.082 124.36 140.122 124.36H142.362V129.16H138.122C136.575 129.16 135.362 129.613 134.482 130.52C133.602 131.426 133.162 132.586 133.162 134V140.96H140.322V145H122.922V140.96ZM157.186 121.16C155.986 121.16 155.133 120.906 154.626 120.4C154.146 119.893 153.906 119.28 153.906 118.56V117.6C153.906 116.88 154.146 116.266 154.626 115.76C155.133 115.253 155.986 115 157.186 115C158.386 115 159.226 115.253 159.706 115.76C160.213 116.266 160.466 116.88 160.466 117.6V118.56C160.466 119.28 160.213 119.893 159.706 120.4C159.226 120.906 158.386 121.16 157.186 121.16ZM147.826 140.96H154.626V128.4H147.826V124.36H159.746V140.96H166.066V145H147.826V140.96ZM184.011 141.36H183.731C183.171 142.613 182.397 143.613 181.411 144.36C180.451 145.106 179.171 145.48 177.571 145.48C176.397 145.48 175.317 145.266 174.331 144.84C173.371 144.386 172.544 143.72 171.851 142.84C171.157 141.933 170.624 140.8 170.251 139.44C169.877 138.08 169.691 136.493 169.691 134.68C169.691 131.053 170.411 128.346 171.851 126.56C173.291 124.773 175.197 123.88 177.571 123.88C179.171 123.88 180.451 124.253 181.411 125C182.397 125.746 183.171 126.746 183.731 128H184.011V115.4H189.131V145H184.011V141.36ZM179.731 141.4C180.317 141.4 180.864 141.333 181.371 141.2C181.904 141.04 182.357 140.826 182.731 140.56C183.131 140.266 183.437 139.906 183.651 139.48C183.891 139.026 184.011 138.506 184.011 137.92V131.44C184.011 130.853 183.891 130.346 183.651 129.92C183.437 129.466 183.131 129.106 182.731 128.84C182.357 128.546 181.904 128.333 181.371 128.2C180.864 128.04 180.317 127.96 179.731 127.96C178.237 127.96 177.077 128.413 176.251 129.32C175.451 130.226 175.051 131.466 175.051 133.04V136.32C175.051 137.893 175.451 139.133 176.251 140.04C177.077 140.946 178.237 141.4 179.731 141.4Z" fill="#FFA300"/>
<path d="M33.0994 172H30.0387V162.545H33.1964C34.1228 162.545 34.9183 162.734 35.5831 163.113C36.2479 163.488 36.7572 164.028 37.1112 164.733C37.4682 165.435 37.6467 166.277 37.6467 167.258C37.6467 168.243 37.4666 169.09 37.1065 169.797C36.7495 170.505 36.2325 171.05 35.5554 171.432C34.8783 171.81 34.0597 172 33.0994 172ZM31.4652 170.753H33.021C33.7411 170.753 34.3397 170.618 34.8168 170.347C35.2938 170.073 35.6508 169.677 35.8878 169.16C36.1248 168.64 36.2433 168.006 36.2433 167.258C36.2433 166.517 36.1248 165.887 35.8878 165.37C35.6539 164.853 35.3046 164.461 34.8398 164.193C34.3751 163.925 33.7981 163.791 33.1087 163.791H31.4652V170.753ZM42.3659 172.143C41.6672 172.143 41.0655 171.993 40.5608 171.695C40.0592 171.393 39.6714 170.97 39.3975 170.425C39.1266 169.877 38.9912 169.236 38.9912 168.5C38.9912 167.774 39.1266 167.134 39.3975 166.58C39.6714 166.026 40.053 165.593 40.5423 165.283C41.0348 164.972 41.6103 164.816 42.2689 164.816C42.669 164.816 43.0568 164.882 43.4323 165.015C43.8077 165.147 44.1447 165.355 44.4433 165.638C44.7418 165.921 44.9772 166.289 45.1496 166.741C45.3219 167.191 45.4081 167.737 45.4081 168.38V168.87H39.7714V167.835H44.0555C44.0555 167.472 43.9816 167.151 43.8339 166.871C43.6862 166.587 43.4784 166.364 43.2107 166.201C42.946 166.038 42.6352 165.957 42.2781 165.957C41.8904 165.957 41.5518 166.052 41.2625 166.243C40.9763 166.431 40.7547 166.677 40.5977 166.981C40.4439 167.283 40.3669 167.611 40.3669 167.965V168.773C40.3669 169.247 40.45 169.65 40.6162 169.982C40.7855 170.314 41.0209 170.568 41.3225 170.744C41.6241 170.916 41.9765 171.002 42.3797 171.002C42.6413 171.002 42.8798 170.965 43.0953 170.892C43.3107 170.815 43.4969 170.701 43.6539 170.55C43.8108 170.399 43.9308 170.213 44.0139 169.991L45.3204 170.227C45.2158 170.611 45.028 170.948 44.7572 171.238C44.4894 171.524 44.1524 171.747 43.7462 171.907C43.343 172.064 42.8829 172.143 42.3659 172.143ZM48.32 162.545V172H46.9396V162.545H48.32ZM50.1769 172V164.909H51.5573V172H50.1769ZM50.874 163.814C50.634 163.814 50.4278 163.734 50.2554 163.574C50.0861 163.411 50.0015 163.217 50.0015 162.993C50.0015 162.765 50.0861 162.571 50.2554 162.411C50.4278 162.248 50.634 162.166 50.874 162.166C51.1141 162.166 51.3187 162.248 51.488 162.411C51.6604 162.571 51.7465 162.765 51.7465 162.993C51.7465 163.217 51.6604 163.411 51.488 163.574C51.3187 163.734 51.1141 163.814 50.874 163.814ZM56.4703 172.143C55.7717 172.143 55.17 171.993 54.6653 171.695C54.1636 171.393 53.7759 170.97 53.502 170.425C53.2311 169.877 53.0957 169.236 53.0957 168.5C53.0957 167.774 53.2311 167.134 53.502 166.58C53.7759 166.026 54.1575 165.593 54.6468 165.283C55.1393 164.972 55.7148 164.816 56.3734 164.816C56.7735 164.816 57.1613 164.882 57.5368 165.015C57.9122 165.147 58.2492 165.355 58.5478 165.638C58.8463 165.921 59.0817 166.289 59.2541 166.741C59.4264 167.191 59.5126 167.737 59.5126 168.38V168.87H53.8759V167.835H58.16C58.16 167.472 58.0861 167.151 57.9384 166.871C57.7907 166.587 57.5829 166.364 57.3152 166.201C57.0505 166.038 56.7396 165.957 56.3826 165.957C55.9949 165.957 55.6563 166.052 55.367 166.243C55.0808 166.431 54.8592 166.677 54.7022 166.981C54.5484 167.283 54.4714 167.611 54.4714 167.965V168.773C54.4714 169.247 54.5545 169.65 54.7207 169.982C54.89 170.314 55.1254 170.568 55.427 170.744C55.7286 170.916 56.081 171.002 56.4842 171.002C56.7458 171.002 56.9843 170.965 57.1998 170.892C57.4152 170.815 57.6014 170.701 57.7583 170.55C57.9153 170.399 58.0353 170.213 58.1184 169.991L59.4249 170.227C59.3203 170.611 59.1325 170.948 58.8617 171.238C58.5939 171.524 58.2569 171.747 57.8507 171.907C57.4475 172.064 56.9874 172.143 56.4703 172.143ZM66.907 164.909L64.3357 172H62.8584L60.2824 164.909H61.7643L63.5601 170.365H63.634L65.4252 164.909H66.907ZM71.0192 172.143C70.3205 172.143 69.7189 171.993 69.2141 171.695C68.7125 171.393 68.3247 170.97 68.0508 170.425C67.7799 169.877 67.6445 169.236 67.6445 168.5C67.6445 167.774 67.7799 167.134 68.0508 166.58C68.3247 166.026 68.7063 165.593 69.1957 165.283C69.6881 164.972 70.2636 164.816 70.9222 164.816C71.3223 164.816 71.7101 164.882 72.0856 165.015C72.4611 165.147 72.7981 165.355 73.0966 165.638C73.3951 165.921 73.6306 166.289 73.8029 166.741C73.9753 167.191 74.0614 167.737 74.0614 168.38V168.87H68.4247V167.835H72.7088C72.7088 167.472 72.6349 167.151 72.4872 166.871C72.3395 166.587 72.1317 166.364 71.864 166.201C71.5993 166.038 71.2885 165.957 70.9315 165.957C70.5437 165.957 70.2051 166.052 69.9158 166.243C69.6296 166.431 69.408 166.677 69.2511 166.981C69.0972 167.283 69.0202 167.611 69.0202 167.965V168.773C69.0202 169.247 69.1033 169.65 69.2695 169.982C69.4388 170.314 69.6742 170.568 69.9759 170.744C70.2775 170.916 70.6299 171.002 71.033 171.002C71.2946 171.002 71.5331 170.965 71.7486 170.892C71.964 170.815 72.1502 170.701 72.3072 170.55C72.4641 170.399 72.5842 170.213 72.6673 169.991L73.9737 170.227C73.8691 170.611 73.6813 170.948 73.4105 171.238C73.1428 171.524 72.8058 171.747 72.3995 171.907C71.9963 172.064 71.5362 172.143 71.0192 172.143ZM75.593 172V164.909H76.9271V166.035H77.001C77.1302 165.653 77.358 165.353 77.6842 165.135C78.0135 164.913 78.3859 164.802 78.8014 164.802C78.8876 164.802 78.9891 164.806 79.1061 164.812C79.2261 164.818 79.32 164.826 79.3877 164.835V166.155C79.3323 166.14 79.2338 166.123 79.0922 166.104C78.9507 166.083 78.8091 166.072 78.6675 166.072C78.3413 166.072 78.0505 166.141 77.795 166.28C77.5426 166.415 77.3426 166.604 77.1949 166.848C77.0471 167.088 76.9733 167.361 76.9733 167.669V172H75.593ZM87.3973 164.909V166.017H83.3902V164.909H87.3973ZM84.4889 172V164.087C84.4889 163.644 84.5858 163.276 84.7797 162.984C84.9736 162.688 85.2306 162.468 85.5507 162.323C85.8708 162.176 86.2185 162.102 86.594 162.102C86.871 162.102 87.108 162.125 87.305 162.171C87.5019 162.214 87.6481 162.254 87.7435 162.291L87.4204 163.408C87.3557 163.39 87.2726 163.368 87.1711 163.344C87.0695 163.316 86.9464 163.302 86.8018 163.302C86.4663 163.302 86.2262 163.385 86.0816 163.551C85.94 163.718 85.8692 163.958 85.8692 164.272V172H84.4889ZM90.6692 172.156C90.2199 172.156 89.8136 172.073 89.4505 171.907C89.0873 171.738 88.7995 171.493 88.5872 171.173C88.3779 170.853 88.2733 170.461 88.2733 169.996C88.2733 169.596 88.3502 169.267 88.5041 169.008C88.658 168.75 88.8657 168.545 89.1273 168.394C89.3889 168.243 89.6813 168.129 90.0044 168.052C90.3276 167.975 90.6569 167.917 90.9924 167.877C91.4171 167.828 91.7618 167.788 92.0265 167.757C92.2911 167.723 92.4835 167.669 92.6035 167.595C92.7235 167.522 92.7836 167.402 92.7836 167.235V167.203C92.7836 166.8 92.6697 166.487 92.4419 166.266C92.2173 166.044 91.8818 165.933 91.4355 165.933C90.9708 165.933 90.6046 166.037 90.3368 166.243C90.0721 166.446 89.889 166.672 89.7875 166.921L88.4902 166.626C88.6441 166.195 88.8688 165.847 89.1642 165.583C89.4628 165.315 89.8059 165.121 90.1937 165.001C90.5815 164.878 90.9893 164.816 91.4171 164.816C91.7002 164.816 92.0003 164.85 92.3173 164.918C92.6374 164.982 92.9359 165.102 93.2129 165.278C93.493 165.453 93.7222 165.704 93.9007 166.03C94.0792 166.354 94.1685 166.774 94.1685 167.291V172H92.8205V171.03H92.7651C92.6758 171.209 92.542 171.384 92.3635 171.556C92.185 171.729 91.9557 171.872 91.6756 171.986C91.3955 172.1 91.0601 172.156 90.6692 172.156ZM90.9693 171.049C91.3509 171.049 91.6771 170.973 91.948 170.822C92.2219 170.672 92.4296 170.475 92.5712 170.231C92.7159 169.985 92.7882 169.722 92.7882 169.442V168.528C92.7389 168.577 92.6435 168.623 92.502 168.666C92.3635 168.706 92.205 168.742 92.0265 168.773C91.848 168.8 91.6741 168.826 91.5048 168.851C91.3355 168.873 91.194 168.891 91.0801 168.906C90.8123 168.94 90.5676 168.997 90.3461 169.077C90.1275 169.157 89.9521 169.273 89.8198 169.424C89.6905 169.571 89.6259 169.768 89.6259 170.014C89.6259 170.356 89.7521 170.615 90.0044 170.79C90.2568 170.962 90.5784 171.049 90.9693 171.049ZM101.819 164.909L99.2478 172H97.7705L95.1945 164.909H96.6764L98.4722 170.365H98.5461L100.337 164.909H101.819ZM105.862 172.143C105.197 172.143 104.617 171.99 104.122 171.686C103.626 171.381 103.241 170.955 102.968 170.407C102.694 169.859 102.557 169.219 102.557 168.486C102.557 167.751 102.694 167.108 102.968 166.557C103.241 166.006 103.626 165.578 104.122 165.273C104.617 164.969 105.197 164.816 105.862 164.816C106.527 164.816 107.107 164.969 107.602 165.273C108.098 165.578 108.483 166.006 108.757 166.557C109.03 167.108 109.167 167.751 109.167 168.486C109.167 169.219 109.03 169.859 108.757 170.407C108.483 170.955 108.098 171.381 107.602 171.686C107.107 171.99 106.527 172.143 105.862 172.143ZM105.867 170.984C106.298 170.984 106.655 170.87 106.938 170.642C107.221 170.415 107.43 170.111 107.566 169.733C107.704 169.354 107.773 168.937 107.773 168.482C107.773 168.029 107.704 167.614 107.566 167.235C107.43 166.854 107.221 166.547 106.938 166.317C106.655 166.086 106.298 165.97 105.867 165.97C105.433 165.97 105.073 166.086 104.786 166.317C104.503 166.547 104.292 166.854 104.154 167.235C104.019 167.614 103.951 168.029 103.951 168.482C103.951 168.937 104.019 169.354 104.154 169.733C104.292 170.111 104.503 170.415 104.786 170.642C105.073 170.87 105.433 170.984 105.867 170.984ZM110.708 172V164.909H112.042V166.035H112.116C112.245 165.653 112.473 165.353 112.799 165.135C113.129 164.913 113.501 164.802 113.917 164.802C114.003 164.802 114.104 164.806 114.221 164.812C114.341 164.818 114.435 164.826 114.503 164.835V166.155C114.448 166.14 114.349 166.123 114.207 166.104C114.066 166.083 113.924 166.072 113.783 166.072C113.457 166.072 113.166 166.141 112.91 166.28C112.658 166.415 112.458 166.604 112.31 166.848C112.162 167.088 112.089 167.361 112.089 167.669V172H110.708ZM115.697 172V164.909H117.078V172H115.697ZM116.395 163.814C116.154 163.814 115.948 163.734 115.776 163.574C115.607 163.411 115.522 163.217 115.522 162.993C115.522 162.765 115.607 162.571 115.776 162.411C115.948 162.248 116.154 162.166 116.395 162.166C116.635 162.166 116.839 162.248 117.009 162.411C117.181 162.571 117.267 162.765 117.267 162.993C117.267 163.217 117.181 163.411 117.009 163.574C116.839 163.734 116.635 163.814 116.395 163.814ZM122.245 164.909V166.017H118.372V164.909H122.245ZM119.41 163.21H120.791V169.917C120.791 170.185 120.831 170.387 120.911 170.522C120.991 170.655 121.094 170.745 121.22 170.795C121.349 170.841 121.489 170.864 121.64 170.864C121.751 170.864 121.848 170.856 121.931 170.841C122.014 170.825 122.079 170.813 122.125 170.804L122.374 171.944C122.294 171.975 122.18 172.006 122.032 172.036C121.885 172.07 121.7 172.089 121.478 172.092C121.115 172.098 120.777 172.033 120.463 171.898C120.149 171.763 119.895 171.553 119.701 171.27C119.507 170.987 119.41 170.631 119.41 170.204V163.21ZM126.752 172.143C126.053 172.143 125.451 171.993 124.947 171.695C124.445 171.393 124.057 170.97 123.783 170.425C123.512 169.877 123.377 169.236 123.377 168.5C123.377 167.774 123.512 167.134 123.783 166.58C124.057 166.026 124.439 165.593 124.928 165.283C125.421 164.972 125.996 164.816 126.655 164.816C127.055 164.816 127.443 164.882 127.818 165.015C128.193 165.147 128.53 165.355 128.829 165.638C129.128 165.921 129.363 166.289 129.535 166.741C129.708 167.191 129.794 167.737 129.794 168.38V168.87H124.157V167.835H128.441C128.441 167.472 128.367 167.151 128.22 166.871C128.072 166.587 127.864 166.364 127.596 166.201C127.332 166.038 127.021 165.957 126.664 165.957C126.276 165.957 125.938 166.052 125.648 166.243C125.362 166.431 125.14 166.677 124.983 166.981C124.83 167.283 124.753 167.611 124.753 167.965V168.773C124.753 169.247 124.836 169.65 125.002 169.982C125.171 170.314 125.407 170.568 125.708 170.744C126.01 170.916 126.362 171.002 126.765 171.002C127.027 171.002 127.266 170.965 127.481 170.892C127.696 170.815 127.883 170.701 128.04 170.55C128.197 170.399 128.317 170.213 128.4 169.991L129.706 170.227C129.602 170.611 129.414 170.948 129.143 171.238C128.875 171.524 128.538 171.747 128.132 171.907C127.729 172.064 127.269 172.143 126.752 172.143ZM138.14 164.909V166.017H134.133V164.909H138.14ZM135.232 172V164.087C135.232 163.644 135.329 163.276 135.523 162.984C135.717 162.688 135.974 162.468 136.294 162.323C136.614 162.176 136.962 162.102 137.337 162.102C137.614 162.102 137.851 162.125 138.048 162.171C138.245 162.214 138.391 162.254 138.487 162.291L138.164 163.408C138.099 163.39 138.016 163.368 137.914 163.344C137.813 163.316 137.69 163.302 137.545 163.302C137.209 163.302 136.969 163.385 136.825 163.551C136.683 163.718 136.612 163.958 136.612 164.272V172H135.232ZM142.272 172.143C141.607 172.143 141.027 171.99 140.532 171.686C140.036 171.381 139.652 170.955 139.378 170.407C139.104 169.859 138.967 169.219 138.967 168.486C138.967 167.751 139.104 167.108 139.378 166.557C139.652 166.006 140.036 165.578 140.532 165.273C141.027 164.969 141.607 164.816 142.272 164.816C142.937 164.816 143.517 164.969 144.013 165.273C144.508 165.578 144.893 166.006 145.167 166.557C145.441 167.108 145.578 167.751 145.578 168.486C145.578 169.219 145.441 169.859 145.167 170.407C144.893 170.955 144.508 171.381 144.013 171.686C143.517 171.99 142.937 172.143 142.272 172.143ZM142.277 170.984C142.708 170.984 143.065 170.87 143.348 170.642C143.631 170.415 143.84 170.111 143.976 169.733C144.114 169.354 144.183 168.937 144.183 168.482C144.183 168.029 144.114 167.614 143.976 167.235C143.84 166.854 143.631 166.547 143.348 166.317C143.065 166.086 142.708 165.97 142.277 165.97C141.843 165.97 141.483 166.086 141.197 166.317C140.913 166.547 140.703 166.854 140.564 167.235C140.429 167.614 140.361 168.029 140.361 168.482C140.361 168.937 140.429 169.354 140.564 169.733C140.703 170.111 140.913 170.415 141.197 170.642C141.483 170.87 141.843 170.984 142.277 170.984ZM150.105 172.143C149.44 172.143 148.86 171.99 148.365 171.686C147.869 171.381 147.485 170.955 147.211 170.407C146.937 169.859 146.8 169.219 146.8 168.486C146.8 167.751 146.937 167.108 147.211 166.557C147.485 166.006 147.869 165.578 148.365 165.273C148.86 164.969 149.44 164.816 150.105 164.816C150.77 164.816 151.35 164.969 151.846 165.273C152.341 165.578 152.726 166.006 153 166.557C153.274 167.108 153.411 167.751 153.411 168.486C153.411 169.219 153.274 169.859 153 170.407C152.726 170.955 152.341 171.381 151.846 171.686C151.35 171.99 150.77 172.143 150.105 172.143ZM150.11 170.984C150.541 170.984 150.898 170.87 151.181 170.642C151.464 170.415 151.673 170.111 151.809 169.733C151.947 169.354 152.016 168.937 152.016 168.482C152.016 168.029 151.947 167.614 151.809 167.235C151.673 166.854 151.464 166.547 151.181 166.317C150.898 166.086 150.541 165.97 150.11 165.97C149.676 165.97 149.316 166.086 149.03 166.317C148.746 166.547 148.536 166.854 148.397 167.235C148.262 167.614 148.194 168.029 148.194 168.482C148.194 168.937 148.262 169.354 148.397 169.733C148.536 170.111 148.746 170.415 149.03 170.642C149.316 170.87 149.676 170.984 150.11 170.984ZM157.606 172.138C157.033 172.138 156.522 171.992 156.073 171.699C155.627 171.404 155.276 170.984 155.021 170.439C154.768 169.891 154.642 169.234 154.642 168.468C154.642 167.702 154.77 167.046 155.025 166.501C155.284 165.957 155.638 165.54 156.087 165.25C156.536 164.961 157.046 164.816 157.615 164.816C158.055 164.816 158.409 164.89 158.677 165.038C158.948 165.183 159.157 165.352 159.305 165.546C159.455 165.74 159.572 165.91 159.656 166.058H159.739V162.545H161.119V172H159.771V170.896H159.656C159.572 171.047 159.452 171.219 159.295 171.413C159.142 171.607 158.929 171.776 158.658 171.921C158.388 172.066 158.037 172.138 157.606 172.138ZM157.911 170.961C158.308 170.961 158.643 170.856 158.917 170.647C159.194 170.435 159.403 170.141 159.545 169.765C159.689 169.39 159.762 168.953 159.762 168.454C159.762 167.962 159.691 167.531 159.549 167.161C159.408 166.792 159.2 166.504 158.926 166.298C158.652 166.092 158.314 165.989 157.911 165.989C157.495 165.989 157.149 166.097 156.872 166.312C156.595 166.527 156.386 166.821 156.244 167.194C156.105 167.566 156.036 167.986 156.036 168.454C156.036 168.928 156.107 169.354 156.249 169.733C156.39 170.111 156.599 170.411 156.876 170.633C157.156 170.852 157.501 170.961 157.911 170.961Z" fill="white"/>
<rect x="41.9993" y="0.000366211" width="108" height="95" rx="7" fill="#FFA300"/>
<path d="M83.7044 59.4504H101.404C106.29 59.4504 110.254 55.4863 110.254 50.6004H113.204C119.713 50.6004 125.004 45.3088 125.004 38.8004C125.004 32.2919 119.713 27.0004 113.204 27.0004H77.0669C75.8408 27.0004 74.8544 27.9868 74.8544 29.2129V50.6004C74.8544 55.4863 78.8185 59.4504 83.7044 59.4504ZM113.204 32.9004C116.459 32.9004 119.104 35.5461 119.104 38.8004C119.104 42.0546 116.459 44.7004 113.204 44.7004H110.254V32.9004H113.204ZM117.602 68.3004H70.4571C66.069 68.3004 64.8336 62.4004 67.1383 62.4004H120.911C123.216 62.4004 121.999 68.3004 117.602 68.3004Z" fill="black"/>
</svg>
