<svg width="50" height="50" viewBox="0 0 50 50" fill="none" xmlns="http://www.w3.org/2000/svg">
<path d="M7.39548 20.6296C6.58937 20.6296 5.93585 19.976 5.93585 19.1699V16.2507C5.93585 15.4445 6.58937 14.791 7.39548 14.791C8.20159 14.791 8.85512 15.4445 8.85512 16.2507V19.1699C8.85512 19.976 8.20159 20.6296 7.39548 20.6296Z" fill="#66334D"/>
<path d="M35.1286 16.2506V19.1699C35.1286 19.9756 34.4747 20.6295 33.669 20.6295H16.1533C15.3476 20.6295 14.6937 19.9756 14.6937 19.1699V16.2506C14.6937 13.8364 16.6584 11.8717 19.0726 11.8717H30.7497C33.164 11.8717 35.1286 13.8364 35.1286 16.2506Z" fill="#66334D"/>
<path d="M35.1286 16.2506V19.1699C35.1286 19.9756 34.4747 20.6295 33.669 20.6295H24.9111V11.8717H30.7497C33.1639 11.8717 35.1286 13.8364 35.1286 16.2506Z" fill="#66334D"/>
<path d="M35.1287 16.2506V19.1699C35.1287 19.9756 34.4747 20.6295 33.669 20.6295H24.9112V11.8717H30.7497C33.164 11.8717 35.1287 13.8364 35.1287 16.2506Z" fill="#4D2739"/>
<path d="M49.8224 22.0892V33.7664L24.9112 36.1018L1.33514e-05 33.7664V22.0892C1.33514e-05 19.675 1.96469 17.7103 4.37893 17.7103H45.4434C47.8577 17.7103 49.8224 19.675 49.8224 22.0892Z" fill="#C44900"/>
<path d="M49.8223 22.0892V33.7664L24.9112 36.1018V17.7103H45.4434C47.8577 17.7103 49.8223 19.675 49.8223 22.0892Z" fill="#66334D"/>
<path d="M49.8223 33.7664V45.4435C49.8223 47.8577 47.8577 49.8224 45.4434 49.8224H4.37893C1.96468 49.8224 9.53674e-06 47.8577 9.53674e-06 45.4435V33.7664H49.8223Z" fill="#FFCC66"/>
<path d="M49.8223 33.7664V45.4435C49.8223 47.8577 47.8577 49.8224 45.4434 49.8224H24.9112V33.7664H49.8223Z" fill="#FFCC00"/>
<path d="M24.9112 23.5488C19.277 23.5488 14.6937 28.1321 14.6937 33.7663C14.6937 39.3898 19.2682 43.9838 24.9112 43.9838C30.5571 43.9838 35.1287 39.3879 35.1287 33.7663C35.1287 28.1321 30.5454 23.5488 24.9112 23.5488Z" fill="#FFF2FB"/>
<path d="M35.1286 33.7663C35.1286 39.3879 30.557 43.9838 24.9112 43.9838V23.5488C30.5454 23.5488 35.1286 28.1321 35.1286 33.7663Z" fill="#FFDFEA"/>
<path d="M24.9111 29.3873C22.4969 29.3873 20.5322 31.352 20.5322 33.7662C20.5322 36.1746 22.4911 38.1452 24.9111 38.1452C27.3293 38.1452 29.2901 36.1766 29.2901 33.7662C29.2901 31.352 27.3254 29.3873 24.9111 29.3873Z" fill="#FFDFEA"/>
<path d="M29.2901 33.7664C29.2901 36.1767 27.3293 38.1453 24.9112 38.1453V29.3875C27.3254 29.3875 29.2901 31.3521 29.2901 33.7664Z" fill="#FFBFBF"/>
<path d="M7.3955 26.4681C8.20164 26.4681 8.85514 25.8146 8.85514 25.0085C8.85514 24.2023 8.20164 23.5488 7.3955 23.5488C6.58937 23.5488 5.93587 24.2023 5.93587 25.0085C5.93587 25.8146 6.58937 26.4681 7.3955 26.4681Z" fill="#97DE3D"/>
<path d="M42.4268 26.4681H39.5075C38.7014 26.4681 38.0479 25.8146 38.0479 25.0085C38.0479 24.2024 38.7014 23.5488 39.5075 23.5488H42.4268C43.2329 23.5488 43.8865 24.2024 43.8865 25.0085C43.8865 25.8146 43.2329 26.4681 42.4268 26.4681Z" fill="#59C36A"/>
<path d="M26.3708 1.45964V4.37892C26.3708 5.18464 25.7169 5.83856 24.9112 5.83856C24.1054 5.83856 23.4515 5.18464 23.4515 4.37892V1.45964C23.4515 0.653918 24.1054 0 24.9112 0C25.7169 0 26.3708 0.653918 26.3708 1.45964Z" fill="#FFE580"/>
<path d="M26.3708 1.45964V4.37892C26.3708 5.18464 25.7169 5.83855 24.9112 5.83855V0C25.7169 0 26.3708 0.653918 26.3708 1.45964Z" fill="#FFCC66"/>
<path d="M28.6855 7.90277C28.1154 7.33273 28.1154 6.40859 28.6855 5.83855L30.7497 3.77433C31.3197 3.20429 32.2439 3.20429 32.8139 3.77433C33.384 4.34437 33.384 5.26851 32.8139 5.83855L30.7497 7.90277C30.1798 8.47281 29.2555 8.47281 28.6855 7.90277Z" fill="#FFCC66"/>
<path d="M19.0726 7.90277L17.0084 5.83855C16.4385 5.26851 16.4385 4.34437 17.0084 3.77433C17.5783 3.20429 18.5025 3.20429 19.0726 3.77433L21.1368 5.83855C21.7068 6.40859 21.7068 7.33273 21.1368 7.90277C20.5669 8.47271 19.6428 8.47291 19.0726 7.90277Z" fill="#FFE580"/>
</svg>
