<svg width="187" height="153" viewBox="0 0 187 153" fill="none" xmlns="http://www.w3.org/2000/svg">
<path d="M119.917 61C118.25 59.3333 115.75 59.3333 114.083 61L82.8333 92.25L69.9166 79.3333C68.2499 77.6667 65.7499 77.6667 64.0833 79.3333C62.4166 81 62.4166 83.5 64.0833 85.1667L79.9166 101C80.7499 101.833 81.5833 102.25 82.8333 102.25C84.0833 102.25 84.9166 101.833 85.7499 101L119.917 66.8333C121.583 65.1667 121.583 62.6667 119.917 61Z" fill="white"/>
<circle cx="42" cy="75" r="3" fill="#F2F2F2"/>
<circle cx="65" cy="110" r="4" fill="#F2F2F2"/>
<circle cx="126" cy="103" r="3" fill="#F2F2F2"/>
<circle cx="90" cy="67" r="2" fill="#F2F2F2"/>
<circle cx="135" cy="71" r="5" fill="#F2F2F2"/>
<circle cx="87" cy="41" r="4" fill="#F2F2F2"/>
<circle cx="10" cy="10" r="10" fill="#FFA300"/>
<circle cx="179" cy="33" r="8" fill="#FFA300"/>
<circle cx="164" cy="147" r="4" fill="#FFA300"/>
<circle cx="25" cy="148" r="5" fill="#FFA300"/>
</svg>
