<svg width="37" height="37" viewBox="0 0 37 37" fill="none" xmlns="http://www.w3.org/2000/svg">
<path d="M37 33.5313C37 35.447 35.447 37 33.5312 37H3.46875C1.55299 37 0 35.447 0 33.5313V14.5055C6.38983e-06 13.9795 0.119635 13.4604 0.349836 12.9874C0.580038 12.5145 0.914783 12.1001 1.32875 11.7756C3.1291 10.3643 4.61691 9.21988 13.1948 2.99448C14.4106 2.108 16.8232 -0.0250649 18.5 0.000228023C20.1764 -0.025354 22.5899 2.10836 23.8052 2.99441C32.3822 9.21915 33.8721 10.3651 35.6713 11.7756C36.0852 12.1001 36.42 12.5145 36.6502 12.9874C36.8804 13.4604 37 13.9795 37 14.5055V33.5313ZM32.2546 19.3235C32.0694 19.0541 31.6982 18.9914 31.4352 19.1857C29.7843 20.405 27.4272 22.1272 23.8052 24.7558C22.5894 25.6422 20.1768 27.7752 18.5 27.7498C16.8226 27.7747 14.4127 25.6438 13.1948 24.7558C9.57324 22.1275 7.21594 20.4052 5.56481 19.1857C5.30184 18.9914 4.93061 19.0541 4.74539 19.3235L4.0898 20.2771C4.00482 20.4006 3.97118 20.5524 3.99598 20.7002C4.02078 20.8481 4.10207 20.9806 4.2227 21.0696C5.87664 22.2909 8.23012 24.0101 11.8325 26.6245C13.2976 27.6927 15.9172 30.0798 18.5 30.0624C21.0816 30.0799 23.7003 27.6942 25.1674 26.6245C28.7699 24.01 31.1234 22.2908 32.7772 21.0696C32.8979 20.9806 32.9792 20.8481 33.0039 20.7002C33.0287 20.5524 32.9951 20.4006 32.9101 20.2771L32.2546 19.3235Z" fill="#FFA300"/>
</svg>
