<svg width="50" height="50" viewBox="0 0 50 50" fill="none" xmlns="http://www.w3.org/2000/svg">
<path d="M22.3933 44.7881C17.5124 44.7881 13.5398 40.8154 13.5398 35.9345V6.28918L3.47628 8.59307C0.988923 9.24724 -0.502499 11.8116 0.155481 14.3219L8.78399 46.5378C9.35691 48.6212 11.2713 50.0001 13.3254 50.0001C13.7106 50.0001 14.1024 49.952 14.4899 49.8502L35.4881 44.7881H22.3933Z" fill="#B0BEC5"/>
<path d="M49.9954 5.72882V35.9345C49.9954 39.1008 47.4329 41.6633 44.2665 41.6633H22.3934C20.2478 41.6633 18.373 40.4759 17.3939 38.7259C16.9354 37.9134 16.6646 36.9552 16.6646 35.9345V5.72882C16.6646 2.56212 19.2271 0 22.3934 0H44.2665C47.4329 0 49.9954 2.56212 49.9954 5.72882Z" fill="#ECEFF1"/>
<path d="M31.247 14.582C31.247 16.8832 29.3817 18.7484 27.0805 18.7484C24.7797 18.7484 22.9141 16.8832 22.9141 14.582C22.9141 12.2811 24.7797 10.4159 27.0805 10.4159C29.3817 10.4159 31.247 12.2811 31.247 14.582Z" fill="#FFC107"/>
<path d="M49.9953 24.8729V35.9346C49.9953 39.1009 47.4328 41.6634 44.2665 41.6634H22.3933C20.2477 41.6634 18.3729 40.476 17.3938 38.7259L38.038 18.0817C39.4543 16.6655 41.7875 16.6655 43.2042 18.0817L49.9953 24.8729Z" fill="#388E3C"/>
<path d="M43.8706 41.6632H22.3934C20.2478 41.6632 18.373 40.4758 17.3939 38.7258C16.9354 37.9133 16.6646 36.9552 16.6646 35.9344V31.1222L22.4143 25.3728C23.8306 23.9561 26.1639 23.9561 27.5805 25.3728L43.8706 41.6632Z" fill="#4CAF50"/>
</svg>
