<svg width="40" height="40" viewBox="0 0 40 40" fill="none" xmlns="http://www.w3.org/2000/svg">
<path d="M28.3333 15H11.6667C11.2246 15 10.8007 14.8244 10.4882 14.5118C10.1756 14.1992 10 13.7753 10 13.3333C10 12.8913 10.1756 12.4673 10.4882 12.1548C10.8007 11.8422 11.2246 11.6666 11.6667 11.6666H28.3333C28.7754 11.6666 29.1993 11.8422 29.5118 12.1548C29.8244 12.4673 30 12.8913 30 13.3333C30 13.7753 29.8244 14.1992 29.5118 14.5118C29.1993 14.8244 28.7754 15 28.3333 15ZM28.3333 21.6666H11.6667C11.2246 21.6666 10.8007 21.491 10.4882 21.1785C10.1756 20.8659 10 20.442 10 20C10 19.5579 10.1756 19.134 10.4882 18.8214C10.8007 18.5089 11.2246 18.3333 11.6667 18.3333H28.3333C28.7754 18.3333 29.1993 18.5089 29.5118 18.8214C29.8244 19.134 30 19.5579 30 20C30 20.442 29.8244 20.8659 29.5118 21.1785C29.1993 21.491 28.7754 21.6666 28.3333 21.6666Z" fill="#252525"/>
<path d="M31.6666 3.33337H8.33325C7.00761 3.33482 5.73668 3.86207 4.79932 4.79944C3.86195 5.73681 3.3347 7.00774 3.33325 8.33337V25C3.3347 26.3257 3.86195 27.5966 4.79932 28.534C5.73668 29.4713 7.00761 29.9986 8.33325 30H27.6432L33.8215 36.1784C34.0545 36.4115 34.3515 36.5703 34.6748 36.6346C34.9981 36.699 35.3332 36.666 35.6377 36.5398C35.9423 36.4137 36.2026 36.2001 36.3857 35.926C36.5689 35.6519 36.6666 35.3297 36.6666 35V8.33337C36.6651 7.00774 36.1379 5.73681 35.2005 4.79944C34.2632 3.86207 32.9922 3.33482 31.6666 3.33337ZM28.3333 21.6667H11.6666C11.2246 21.6667 10.8006 21.4911 10.4881 21.1786C10.1755 20.866 9.99992 20.4421 9.99992 20C9.99992 19.558 10.1755 19.1341 10.4881 18.8215C10.8006 18.509 11.2246 18.3334 11.6666 18.3334H28.3333C28.7753 18.3334 29.1992 18.509 29.5118 18.8215C29.8243 19.1341 29.9999 19.558 29.9999 20C29.9999 20.4421 29.8243 20.866 29.5118 21.1786C29.1992 21.4911 28.7753 21.6667 28.3333 21.6667ZM28.3333 15H11.6666C11.2246 15 10.8006 14.8244 10.4881 14.5119C10.1755 14.1993 9.99992 13.7754 9.99992 13.3334C9.99992 12.8913 10.1755 12.4674 10.4881 12.1549C10.8006 11.8423 11.2246 11.6667 11.6666 11.6667H28.3333C28.7753 11.6667 29.1992 11.8423 29.5118 12.1549C29.8243 12.4674 29.9999 12.8913 29.9999 13.3334C29.9999 13.7754 29.8243 14.1993 29.5118 14.5119C29.1992 14.8244 28.7753 15 28.3333 15Z" fill="#FFA300"/>
</svg>
