<svg width="89" height="32" viewBox="0 0 89 32" fill="none" xmlns="http://www.w3.org/2000/svg">
<path fill-rule="evenodd" clip-rule="evenodd" d="M0 24.2377C0.0586391 23.918 0.112342 23.6084 0.164987 23.3049L0.16499 23.3049C0.246357 22.8358 0.325197 22.3813 0.415828 21.9267C0.799659 19.8708 1.18616 17.8176 1.57265 15.7643L1.57269 15.7642C1.95919 13.7109 2.3457 11.6576 2.72954 9.60159C2.78285 9.3412 2.85749 9.16761 3.11338 9.12421C5.10722 8.82042 7.11173 8.60343 9.10557 9.11336C10.8435 9.54734 12.059 10.795 12.2616 12.2597C12.6774 15.1783 11.0035 17.5109 8.51915 18.3464C7.20769 18.7803 5.87491 18.8888 4.5208 18.7586C4.20093 18.7261 4.10497 18.8129 4.05166 19.1275C3.76378 20.7224 3.46524 22.3065 3.15603 23.8905C3.13471 24.0207 3.01742 24.2268 2.94279 24.2268C2.21816 24.243 1.50542 24.2411 0.764611 24.2391C0.513486 24.2384 0.259135 24.2377 0 24.2377ZM4.58423 16.1765C4.79268 16.1765 4.99456 16.1821 5.19127 16.1875C5.60833 16.199 6.00216 16.2099 6.38615 16.1656C7.49503 16.0463 8.38 15.5364 8.88112 14.4623C9.44622 13.2471 9.04105 11.956 7.97483 11.5763C7.21781 11.305 6.43946 11.3593 5.66112 11.4678C5.56516 11.4786 5.43721 11.6305 5.41588 11.7282C5.26674 12.5234 5.1176 13.322 4.96285 14.1507C4.84103 14.803 4.71573 15.474 4.58423 16.1765ZM18.9039 22.1538C18.7352 22.3323 18.5772 22.5119 18.4227 22.6875L18.4227 22.6875C18.0891 23.0667 17.7722 23.4269 17.4006 23.7161C16.281 24.5949 15.0015 24.7902 13.7114 24.1826C12.4319 23.5859 11.9095 22.425 11.8562 21.058C11.7389 18.1828 12.7305 15.8068 15.1082 14.1576C16.6009 13.1161 18.3175 12.8014 20.0981 12.8991C20.6871 12.9343 21.2716 13.0383 21.8574 13.1426L21.8575 13.1426L21.8575 13.1426L21.8575 13.1426L21.8575 13.1426L21.8575 13.1426C22.1731 13.1987 22.4891 13.2549 22.8063 13.3005C23.1688 13.3548 23.2222 13.5609 23.1582 13.8755C23.0726 14.3293 22.9861 14.7825 22.8996 15.2355C22.5767 16.9271 22.2545 18.6149 21.9853 20.3093C21.831 21.2794 21.7694 22.273 21.7085 23.2567L21.7084 23.2572L21.7084 23.2576C21.6978 23.4289 21.6872 23.5998 21.6761 23.7704C21.6548 24.1176 21.5695 24.2586 21.2176 24.2477C20.5566 24.226 19.8955 24.226 19.2345 24.2477C18.8933 24.2586 18.776 24.1284 18.808 23.7921C18.8384 23.4203 18.858 23.0376 18.8783 22.6398C18.8865 22.4803 18.8948 22.3184 18.9039 22.1538ZM19.6503 15.449C18.616 15.1561 17.7524 15.3622 17.0274 15.9806C15.6626 17.1524 15.0442 18.6713 15.1615 20.4832C15.1934 21.0365 15.4067 21.5682 15.9825 21.8069C16.5582 22.0455 17.0807 21.872 17.5285 21.4814C17.795 21.2427 18.0509 20.9714 18.2429 20.6676C18.9949 19.4996 19.2003 18.1821 19.409 16.8438C19.4814 16.3795 19.5542 15.9128 19.6503 15.449ZM34.7587 21.5253C35.3451 23.4348 36.9552 24.4981 39.7807 24.4981C41.7212 24.4438 43.6511 23.3263 44.8559 21.0262C45.4956 19.7893 45.7302 18.4657 45.6449 17.0769C45.5703 15.7424 45.0478 14.6141 43.9816 13.8112C42.862 12.9649 41.5826 12.7913 40.2178 12.9432C35.6544 13.464 33.7885 18.3789 34.7587 21.5253ZM37.7954 19.932V19.9319V19.9318V19.9316V19.9315C37.7966 19.8762 37.7977 19.8214 37.7977 19.7677C37.8297 18.52 38.1283 17.3591 38.8639 16.3284C39.1945 15.8727 39.6103 15.5255 40.1647 15.3953C41.2949 15.1349 42.2226 15.7967 42.3292 17.0444C42.4571 18.5742 42.0946 19.9847 41.1457 21.2107C40.7831 21.6664 40.3247 21.981 39.7383 22.0353C38.6827 22.1329 37.883 21.406 37.7977 20.2668C37.7906 20.1579 37.793 20.0441 37.7954 19.932ZM48.1831 13.1705H50.8913C50.8487 13.7564 50.806 14.3206 50.7527 14.8956C50.8515 14.8021 50.947 14.7096 51.0406 14.619C51.2401 14.4258 51.4311 14.2409 51.627 14.0711C52.6826 13.138 53.8874 12.7257 55.2842 12.9535C56.4357 13.1488 57.2354 14.006 57.3633 15.2103C57.5024 16.4634 57.2714 17.6789 57.0409 18.8918L57.0409 18.8918L56.9902 19.1595C56.8966 19.6526 56.8041 20.1457 56.7116 20.6384L56.7116 20.6386L56.7116 20.6387L56.7115 20.6388C56.509 21.718 56.3068 22.7957 56.0945 23.8682C56.0625 24.0093 55.9026 24.2154 55.796 24.2263C54.879 24.248 53.9621 24.2371 53.0451 24.2263C53.0144 24.2263 52.9836 24.2094 52.9369 24.1837C52.9188 24.1737 52.8983 24.1624 52.8745 24.1503C53.0451 23.2498 53.2157 22.3384 53.3757 21.4271C53.6209 20.0275 53.8555 18.6387 54.0687 17.2391C54.1114 17.0004 54.09 16.7509 54.058 16.5122C53.9727 15.6768 53.365 15.2971 52.576 15.5466C51.8083 15.7961 51.3498 16.4037 50.9766 17.0764C50.4222 18.0637 50.2303 19.1595 50.0384 20.2553C49.9903 20.5269 49.9427 20.798 49.8952 21.0687L49.8951 21.0692C49.7321 21.9988 49.5696 22.9248 49.388 23.8574C49.356 23.9984 49.196 24.2154 49.0894 24.2263C48.3417 24.2522 47.5873 24.2506 46.7829 24.2489H46.7829C46.5778 24.2484 46.3695 24.248 46.1573 24.248C46.861 20.5157 47.5221 16.8594 48.1831 13.1705ZM63.5576 21.9706C62.4274 21.8295 61.6704 21.0266 61.745 19.8983C61.9807 19.8983 62.2152 19.9019 62.4485 19.9056H62.4486H62.4487C62.9119 19.9128 63.3704 19.9199 63.8241 19.8983C64.9223 19.8332 65.9992 19.6488 67.0015 19.1388C68.281 18.4878 68.878 17.4137 68.7821 16.0141C68.6861 14.5928 67.9291 13.5621 66.575 13.1498C64.5492 12.5314 62.6833 12.9654 61.0946 14.3433C59.1647 16.0141 58.4397 18.2275 58.7169 20.7554C58.9088 22.5456 59.8684 23.8258 61.617 24.2815C63.4936 24.7698 65.3382 24.5094 67.1188 23.7716C67.2467 23.7173 67.396 23.5112 67.3853 23.381C67.3597 22.8516 67.3069 22.3221 67.254 21.7927C67.2407 21.6603 67.2275 21.5279 67.2147 21.3955C67.1797 21.3955 67.1537 21.3937 67.1337 21.3923C67.105 21.3903 67.0887 21.3891 67.0761 21.3955C66.9588 21.4389 66.8416 21.4823 66.7349 21.5257C65.7113 21.9272 64.6558 22.1008 63.5576 21.9706ZM65.2105 17.1645C64.5601 17.5116 62.8754 17.7178 62.0545 17.5442C62.225 16.1012 63.7284 14.9728 64.9972 15.2875C65.4237 15.396 65.7329 15.6238 65.8076 16.0903C65.8822 16.546 65.6583 16.9258 65.2105 17.1645ZM72.3965 19.9415C72.3005 21.0047 73.0469 21.8185 74.1877 21.9704C75.254 22.1005 76.2775 21.9378 77.2798 21.5689C77.3722 21.5337 77.4614 21.4984 77.5594 21.4597C77.6423 21.427 77.7316 21.3917 77.8342 21.3519C77.8551 21.5817 77.8782 21.8068 77.9009 22.0288L77.901 22.0292C77.9481 22.4886 77.9939 22.9347 78.0155 23.3808C78.0261 23.511 77.8769 23.7171 77.7596 23.7714C75.947 24.5309 74.0811 24.7912 72.1726 24.2596C70.4559 23.7822 69.5603 22.5128 69.3471 20.7769C69.0805 18.5527 69.6456 16.5456 71.1703 14.8964C72.8123 13.1279 74.8275 12.4987 77.1518 13.1496C78.5699 13.5511 79.3269 14.5926 79.4122 16.0573C79.4975 17.4895 78.8578 18.5636 77.525 19.1929C76.1816 19.8221 74.7528 19.9198 73.3028 19.9523C73.0149 19.9415 72.7163 19.9415 72.3965 19.9415ZM72.7054 17.6303C72.8994 17.618 73.0899 17.6083 73.2777 17.5987C73.7506 17.5746 74.2063 17.5514 74.6566 17.4892C75.0831 17.435 75.5096 17.3048 75.8934 17.1204C76.3092 16.9359 76.5118 16.5453 76.4479 16.068C76.3839 15.6123 76.0853 15.3953 75.6695 15.2868C74.4113 14.9396 72.844 16.1114 72.7054 17.6303ZM79.9985 21.9705C79.8598 22.7083 79.7319 23.4352 79.5933 24.238C79.8068 24.238 80.0173 24.2385 80.2254 24.2389C81.0458 24.2407 81.8282 24.2423 82.6107 24.2163C82.6853 24.2163 82.8026 24.0102 82.824 23.88C82.9327 23.3381 83.0335 22.7936 83.1344 22.2492C83.3202 21.2457 83.5059 20.2428 83.7409 19.2581C84.2634 17.0665 85.1483 16.307 87.2488 16.0249C87.3341 16.0141 87.4727 15.9164 87.494 15.8405C87.6279 15.2169 87.7477 14.5886 87.8721 13.9367C87.936 13.6019 88.001 13.2609 88.0698 12.9111C86.044 12.6941 84.9138 13.8875 83.9328 15.3522L83.9485 15.1416C83.9967 14.4934 84.0457 13.8338 84.1034 13.1389C83.8818 13.1389 83.6642 13.1382 83.4497 13.1375C82.8182 13.1355 82.2133 13.1336 81.6085 13.1498C81.5232 13.1606 81.3632 13.3559 81.3526 13.4753C81.1251 16.2638 80.5866 18.9911 80.0486 21.7165L79.9985 21.9705Z" fill="white"/>
<path fill-rule="evenodd" clip-rule="evenodd" d="M51.7701 0.0823894C51.6622 0.0534005 51.5542 0.0244117 51.4462 0C51.1157 0 50.7852 0 50.4333 0.0108496C50.3132 0.0353068 50.193 0.0619692 50.0718 0.0888485C49.9243 0.12159 49.7752 0.154652 49.623 0.184443C47.9917 0.499081 46.4563 1.07411 44.9742 1.83358C41.7649 3.48272 38.8861 5.62009 36.3058 8.14804C34.5892 9.81888 32.9259 11.5657 31.3159 13.3558C28.4904 16.5022 26.07 19.9632 24.1402 23.7606C23.1486 25.7244 22.253 27.7315 21.8478 29.9123C21.7732 30.3137 21.9011 30.7803 22.029 31.1817C22.0824 31.3445 22.3809 31.4638 22.5835 31.5289C22.6368 31.5506 22.7967 31.2794 22.8714 31.1275C22.8979 31.0686 22.925 31.0083 22.9527 30.9467C23.4158 29.9176 24.0419 28.526 24.5852 27.6047C25.7367 25.6518 26.6458 24.1403 27.9359 22.2851C30.0044 19.3014 32.4213 16.374 34.9589 13.7918C37.3579 11.3506 39.7604 9.1679 42.7778 7.51876C44.1639 6.77014 45.582 6.03237 47.0321 5.42479C49.5377 4.37238 52.15 3.65631 54.8368 3.25488C55.1247 3.21148 55.5086 2.98364 55.6045 2.74495C55.6898 2.52795 55.4872 2.11567 55.2847 1.90953C54.4637 1.05241 53.5041 0.401435 52.3099 0.206142C52.13 0.179018 51.95 0.130704 51.7701 0.0823894ZM27.3599 14.8862C27.8717 13.4757 28.1276 12.011 28.1596 10.4921C28.1454 10.3293 28.1335 10.1666 28.1217 10.0039C28.098 9.67837 28.0743 9.35288 28.0317 9.0274C27.7438 6.51029 26.6775 4.37292 24.9822 2.53934C24.7797 2.3332 24.5024 2.17046 24.2252 2.07281C23.948 1.96431 23.7668 2.12706 23.7881 2.45255C23.7886 2.45942 23.7891 2.4663 23.7896 2.47319C23.8105 2.74891 23.832 3.03445 23.884 3.30966C23.959 3.74322 24.0334 4.1773 24.1078 4.61168C24.3724 6.15565 24.6377 7.70332 24.9289 9.24439C25.2168 10.7959 25.5367 12.3365 25.8779 13.8663C25.9952 14.3545 26.1871 14.8428 26.4217 15.2985C26.6029 15.6456 26.8588 15.6131 27.0934 15.2985L27.0934 15.2985C27.2 15.1683 27.3066 15.0381 27.3599 14.8862Z" fill="white"/>
</svg>
