<svg width="96" height="27" viewBox="0 0 96 27" fill="none" xmlns="http://www.w3.org/2000/svg">
<path fill-rule="evenodd" clip-rule="evenodd" d="M36.2014 6H31.038C30.6847 6 30.3842 6.26132 30.3291 6.61614L28.2408 20.0895C28.1993 20.3554 28.4016 20.595 28.6666 20.595H31.1316C31.485 20.595 31.7855 20.3337 31.8406 19.9782L32.4038 16.3443C32.4581 15.9884 32.7594 15.7274 33.112 15.7274H34.7465C38.1478 15.7274 40.1106 14.0525 40.6235 10.7336C40.8545 9.28158 40.6333 8.14067 39.9649 7.34143C39.2312 6.46433 37.9294 6 36.2014 6ZM36.7971 10.921C36.5148 12.8064 35.0991 12.8064 33.7303 12.8064H32.9512L33.4978 9.28514C33.5302 9.07253 33.7114 8.91574 33.9228 8.91574H34.2799C35.2123 8.91574 36.092 8.91574 36.5466 9.4565C36.8173 9.77933 36.9005 10.2586 36.7971 10.921ZM51.6358 10.8605H49.1632C48.9526 10.8605 48.7705 11.0173 48.738 11.2303L48.6287 11.9339L48.4557 11.679C47.9205 10.8882 46.727 10.6241 45.5356 10.6241C42.803 10.6241 40.4695 12.7299 40.0149 15.6841C39.7787 17.1574 40.1145 18.5664 40.9359 19.5491C41.6895 20.4525 42.7677 20.829 44.0503 20.829C46.2518 20.829 47.4729 19.3884 47.4729 19.3884L47.3625 20.0877C47.3209 20.3551 47.5232 20.5947 47.7866 20.5947H50.014C50.3683 20.5947 50.667 20.3334 50.7229 19.9778L52.0593 11.3661C52.1016 11.1012 51.9 10.8605 51.6358 10.8605ZM48.1891 15.7576C47.9505 17.1951 46.8293 18.16 45.3996 18.16C44.6817 18.16 44.1076 17.9257 43.7394 17.4816C43.3739 17.0408 43.2348 16.4129 43.3512 15.7139C43.5741 14.2886 44.7141 13.2924 46.1222 13.2924C46.8241 13.2924 47.395 13.5295 47.7709 13.9775C48.1476 14.4301 48.2971 15.0615 48.1891 15.7576ZM62.3197 10.8602H64.8046C65.1525 10.8602 65.3555 11.2573 65.1578 11.5478L56.8937 23.6864C56.7599 23.883 56.5395 24 56.304 24H53.8223C53.4729 24 53.2689 23.5997 53.4712 23.3085L56.0444 19.6123L53.3076 11.4393C53.213 11.1552 53.4191 10.8602 53.7161 10.8602H56.1576C56.4748 10.8602 56.7547 11.0721 56.8462 11.381L58.2986 16.3173L61.7258 11.1805C61.8599 10.98 62.0828 10.8602 62.3197 10.8602Z" fill="white"/>
<path fill-rule="evenodd" clip-rule="evenodd" d="M89.7957 20.252L91.9467 6.37472C91.9797 6.15931 92.1638 6.00072 92.3776 6H94.7993C95.0667 6 95.272 6.2431 95.2298 6.51209L93.1086 20.1394C93.0533 20.4991 92.7482 20.7634 92.389 20.7634H90.2262C89.9588 20.7634 89.7535 20.521 89.7957 20.252ZM73.3219 6.00072H68.0796C67.7217 6.00072 67.4167 6.26504 67.3607 6.62394L65.2409 20.252C65.1987 20.521 65.404 20.7634 65.6718 20.7634H68.3616C68.6116 20.7634 68.8255 20.5785 68.8645 20.3268L69.466 16.4638C69.5213 16.1038 69.827 15.8398 70.1849 15.8398H71.8433C75.2967 15.8398 77.2888 14.1457 77.8098 10.7887C78.0449 9.31999 77.819 8.16597 77.1409 7.35755C76.3965 6.47038 75.0761 6.00072 73.3219 6.00072ZM73.9266 10.9782C73.6407 12.8852 72.2036 12.8852 70.8133 12.8852H70.0232L70.5789 9.32358C70.6119 9.10853 70.7942 8.94994 71.0095 8.94994H71.3719C72.3178 8.94994 73.2116 8.94994 73.6726 9.49692C73.9479 9.82345 74.0316 10.3082 73.9266 10.9782ZM88.9881 10.917H86.4799C86.2643 10.917 86.0813 11.0756 86.049 11.291L85.938 12.0027L85.7617 11.7449C85.2184 10.9451 84.0076 10.6779 82.7982 10.6779C80.0243 10.6779 77.6562 12.8079 77.1948 15.796C76.9558 17.2862 77.2952 18.7114 78.129 19.7054C78.8954 20.6192 79.9885 21 81.2905 21C83.5252 21 84.7644 19.5428 84.7644 19.5428L84.6527 20.2502C84.6105 20.5206 84.8158 20.763 85.085 20.763H87.3449C87.7028 20.763 88.0078 20.4987 88.0638 20.1391L89.4211 11.4284C89.4626 11.1605 89.2573 10.917 88.9881 10.917ZM85.4897 15.8704C85.2489 17.3243 84.1093 18.3004 82.6577 18.3004C81.9303 18.3004 81.3465 18.0634 80.9723 17.6142C80.6014 17.1683 80.462 16.5332 80.5787 15.8262C80.806 14.3845 81.9619 13.3768 83.3912 13.3768C84.104 13.3768 84.6832 13.6167 85.0652 14.0698C85.4489 14.5276 85.6007 15.1663 85.4897 15.8704Z" fill="white"/>
<path d="M20.0373 6.66504C20.013 6.82064 19.9852 6.97973 19.9539 7.14316C18.8784 12.6644 15.1995 14.5717 10.5006 14.5717H8.10818C7.53361 14.5717 7.04938 14.989 6.95979 15.5558L5.73482 23.3243L5.38798 25.5263C5.32967 25.8984 5.61671 26.234 5.99208 26.234H10.2355C10.738 26.234 11.1647 25.8689 11.2438 25.3734L11.2856 25.1577L12.0846 20.0876L12.1359 19.8096C12.214 19.3124 12.6417 18.9472 13.1442 18.9472H13.7788C17.8899 18.9472 21.1083 17.2781 22.049 12.4479C22.4419 10.4302 22.2385 8.74538 21.1987 7.56045C20.8841 7.20315 20.4937 6.9067 20.0373 6.66504Z" fill="white"/>
<path d="M18.9114 6.21692C18.7473 6.16909 18.5776 6.12563 18.4037 6.08651C18.229 6.04827 18.0498 6.01436 17.8656 5.98481C17.2205 5.88048 16.5138 5.83093 15.7565 5.83093H9.36519C9.20778 5.83093 9.05839 5.86657 8.9245 5.93091C8.62971 6.0726 8.41074 6.35168 8.35769 6.69331L6.99784 15.305L6.9588 15.5563C7.04839 14.9895 7.53262 14.5722 8.10719 14.5722H10.4996C15.1985 14.5722 18.8776 12.664 19.953 7.14364C19.985 6.9802 20.012 6.82112 20.0363 6.66551C19.7643 6.52119 19.4695 6.39775 19.1522 6.29254C19.0741 6.26647 18.9933 6.24127 18.9114 6.21692Z" fill="white"/>
<path d="M8.35776 6.69308C8.41081 6.35141 8.63003 6.07236 8.92457 5.93152C9.05945 5.86718 9.2081 5.83154 9.36526 5.83154H15.7569C16.5141 5.83154 17.2208 5.88109 17.8657 5.98542C18.0501 6.01498 18.2293 6.04888 18.404 6.08712C18.5779 6.12626 18.7473 6.16973 18.9117 6.21753C18.9933 6.24188 19.0741 6.26708 19.1532 6.2923C19.4705 6.39748 19.7653 6.52181 20.0374 6.66525C20.3574 4.6249 20.0349 3.23569 18.9318 1.97774C17.7156 0.592889 15.5204 0 12.7116 0H4.55698C3.98316 0 3.49393 0.417264 3.40509 0.984954L0.00871506 22.5142C-0.0583516 22.9402 0.270225 23.3246 0.699652 23.3246H5.73415L6.99816 15.3048L8.35776 6.69308Z" fill="#656565"/>
</svg>
