<svg width="65" height="21" viewBox="0 0 65 21" fill="none" xmlns="http://www.w3.org/2000/svg">
<path fill-rule="evenodd" clip-rule="evenodd" d="M16.0254 20.5919H10.478L6.31819 4.49188C6.12075 3.75128 5.70152 3.09655 5.08485 2.78796C3.54587 2.01248 1.85002 1.39531 0 1.08404V0.464193H8.93635C10.1697 0.464193 11.0947 1.39531 11.2489 2.4767L13.4072 14.0902L18.9519 0.464193H24.3451L16.0254 20.5919ZM27.4288 20.5919H22.1898L26.5038 0.464193H31.7428L27.4288 20.5919ZM38.5201 6.04019C38.6743 4.95612 39.5993 4.33627 40.6785 4.33627C42.3743 4.18064 44.2216 4.49191 45.7633 5.26471L46.6883 0.931118C45.1467 0.311267 43.4508 0 41.9118 0C36.827 0 33.1269 2.78799 33.1269 6.65736C33.1269 9.60098 35.7478 11.1466 37.5978 12.0777C39.5993 13.0061 40.3701 13.626 40.216 14.5544C40.216 15.9471 38.6743 16.5669 37.1353 16.5669C35.2853 16.5669 33.4353 16.1027 31.7421 15.3272L30.8171 19.6635C32.6671 20.4363 34.6686 20.7476 36.5186 20.7476C42.2202 20.9005 45.7633 18.1152 45.7633 13.9346C45.7633 8.66986 38.5201 8.36128 38.5201 6.04019ZM64.0993 20.5919L59.9394 0.464188H55.4712C54.5462 0.464188 53.6212 1.08404 53.3129 2.01247L45.6099 20.5919H51.0031L52.0795 17.651H58.7061L59.3227 20.5919H64.0993ZM56.2416 5.88458L57.7805 13.4704H53.4665L56.2416 5.88458Z" fill="white"/>
</svg>
